<svg width='24' class="iconc" height='24' viewBox='0 0 24 24' xmlns='http://www.w3.org/2000/svg' xmlns:xlink='http://www.w3.org/1999/xlink'><rect width='24' height='24' stroke='none' fill='#f0fff1' opacity='0'/>


<g transform="matrix(1.54 0 0 1.54 12 12)" >
<path style="stroke: none; stroke-width: 1; stroke-dasharray: none; stroke-linecap: butt; stroke-dashoffset: 0; stroke-linejoin: miter; stroke-miterlimit: 4; fill:#f0fff1; fill-rule: nonzero; opacity: 1;" transform=" translate(-7.5, -7.5)" d="M 7 1 L 7 2 L 6 2 C 4.347656 2 3 3.347656 3 5 C 3 6.652344 4.347656 8 6 8 L 9 8 C 10.109375 8 11 8.890625 11 10 C 11 11.109375 10.109375 12 9 12 L 5.5 12 C 4.664063 12 4 11.335938 4 10.5 L 4 10 L 3 10 L 3 10.5 C 3 11.875 4.125 13 5.5 13 L 7 13 L 7 14 L 8 14 L 8 13 L 9 13 C 10.652344 13 12 11.652344 12 10 C 12 8.347656 10.652344 7 9 7 L 6 7 C 4.890625 7 4 6.109375 4 5 C 4 3.890625 4.890625 3 6 3 L 8.5 3 C 9.335938 3 10 3.664063 10 4.5 L 10 5 L 11 5 L 11 4.5 C 11 3.125 9.875 2 8.5 2 L 8 2 L 8 1 Z" stroke-linecap="round" />
</g>
</svg>