<svg width='24' height='24' viewBox='0 0 24 24' xmlns='http://www.w3.org/2000/svg' xmlns:xlink='http://www.w3.org/1999/xlink'><rect width='24' height='24' stroke='none' fill='#f0fff1' opacity='0'/>


<g transform="matrix(0.77 0 0 0.77 12 12)" >
<path style="stroke: none; stroke-width: 1; stroke-dasharray: none; stroke-linecap: butt; stroke-dashoffset: 0; stroke-linejoin: miter; stroke-miterlimit: 4; fill: #f0fff1; fill-rule: nonzero; opacity: 1;" transform=" translate(-15, -15)" d="M 15 2 C 13.183 2 11.454813 2.3786875 9.8828125 3.0546875 L 10.828125 4 C 11.024125 4.196 11.19475 4.4116719 11.34375 4.6386719 C 12.48975 4.2326719 13.717 4 15 4 C 21.065 4 26 8.935 26 15 C 26 21.065 21.065 26 15 26 C 8.935 26 4 21.065 4 15 C 4 13.717 4.2326719 12.490703 4.6386719 11.345703 C 4.4116719 11.196703 4.196 11.025125 4 10.828125 L 3.0546875 9.8828125 C 2.3786875 11.454813 2 13.183 2 15 C 2 22.168 7.832 28 15 28 C 22.168 28 28 22.168 28 15 C 28 7.832 22.168 2 15 2 z M 3.9902344 2.9902344 C 3.5833113137620534 2.9903412670489105 3.2170253696916875 3.2369898350079738 3.06390336887315 3.6140045063396196 C 2.9107813680546126 3.991019177671266 3.001357463289291 4.423219223797841 3.2929688 4.7070312 L 4.5859375 6 L 3.7148438 6 C 3.0818437 6 2.7648906 6.7648906 3.2128906 7.2128906 L 5.4140625 9.4140625 C 5.7890625 9.7890625 6.298125 10 6.828125 10 L 8.5859375 10 L 14.292969 15.707031 C 14.543785573137152 15.968271794792878 14.916235992218144 16.07350663500295 15.266678051522469 15.982149810984035 C 15.617120110826793 15.890792986965119 15.890792986965119 15.617120110826793 15.982149810984035 15.266678051522469 C 16.07350663500295 14.916235992218144 15.968271794792878 14.543785573137152 15.707031 14.292969 L 10 8.5859375 L 10 6.828125 C 10 6.298125 9.7890625 5.7890625 9.4140625 5.4140625 L 7.2128906 3.2128906 C 6.7648906 2.7648906 6 3.0818437 6 3.7148438 L 6 4.5859375 L 4.7070312 3.2929688 C 4.518760128868618 3.0994360568055255 4.260236101227262 2.990250139131801 3.9902343999999994 2.9902344 z M 15 6 C 13.936 6 12.918703 6.1941563 11.970703 6.5351562 C 11.978703 6.6331563 12 6.729125 12 6.828125 L 12 7.7578125 L 12.654297 8.4121094 C 13.389297 8.1501094 14.177 8 15 8 C 18.859 8 22 11.14 22 15 C 22 18.86 18.859 22 15 22 C 11.141 22 8 18.86 8 15 C 8 14.177 8.1491094 13.389297 8.4121094 12.654297 L 7.7578125 12 L 6.828125 12 C 6.729125 12 6.6331563 11.978703 6.5351562 11.970703 C 6.1951563 12.918703 6 13.936 6 15 C 6 19.962 10.037 24 15 24 C 19.963 24 24 19.962 24 15 C 24 10.038 19.963 6 15 6 z M 15 10 C 14.764 10 14.5395 10.038312 14.3125 10.070312 L 17.121094 12.878906 L 17.119141 12.880859 C 17.663141 13.423859 18 14.173 18 15 C 18 16.654 16.654 18 15 18 C 14.173 18 13.423859 17.663141 12.880859 17.119141 L 12.878906 17.121094 L 10.070312 14.3125 C 10.038312 14.5395 10 14.764 10 15 C 10 17.757 12.243 20 15 20 C 17.757 20 20 17.757 20 15 C 20 12.243 17.757 10 15 10 z" stroke-linecap="round" />
</g>
</svg>