<svg width='24' height='24' viewBox='0 0 22 22' xmlns='http://www.w3.org/2000/svg' xmlns:xlink='http://www.w3.org/1999/xlink'><rect width='24' height='24' stroke='none' fill='#000000' opacity='0'/>


<g transform="matrix(1 0 0 1 12 12)" >
<g style="" >
<g transform="matrix(1 0 0 1 0 0)" >
<path style="stroke: none; stroke-width: 2; stroke-dasharray: none; stroke-linecap: round; stroke-dashoffset: 0; stroke-linejoin: round; stroke-miterlimit: 4; fill: none; fill-rule: nonzero; opacity: 1;" transform=" translate(-12, -12)" d="M 0 0 L 24 0 L 24 24 L 0 24 z" stroke-linecap="round" />
</g>
<g transform="matrix(1 0 0 1 -3.5 0)" >
<path style="stroke: #f0fff1; stroke-width: 2; stroke-dasharray: none; stroke-linecap: round; stroke-dashoffset: 0; stroke-linejoin: round; stroke-miterlimit: 4; fill: none; fill-rule: nonzero; opacity: 1;" transform=" translate(-8.5, -12)" d="M 14 8 L 14 6 C 14 4.8954305003384135 13.104569499661586 4 12 4 L 5 4 C 3.895430500338413 4 3 4.8954305003384135 3 6 L 3 18 C 3 19.104569499661586 3.895430500338413 20 5 20 L 12 20 C 13.104569499661586 20 14 19.104569499661586 14 18 L 14 16" stroke-linecap="round" />
</g>
<g transform="matrix(1 0 0 1 2 0)" >
<path style="stroke: #f0fff1; stroke-width: 2; stroke-dasharray: none; stroke-linecap: round; stroke-dashoffset: 0; stroke-linejoin: round; stroke-miterlimit: 4; fill: none; fill-rule: nonzero; opacity: 1;" transform=" translate(-14, -12)" d="M 7 12 L 21 12 L 18 9 M 18 15 L 21 12" stroke-linecap="round" />
</g>
</g>
</g>
</svg>